<?xml version="1.0" standalone="no"?>
<!DOCTYPE svg PUBLIC "-//W3C//DTD SVG 20010904//EN"
 "http://www.w3.org/TR/2001/REC-SVG-20010904/DTD/svg10.dtd">
<svg version="1.0" xmlns="http://www.w3.org/2000/svg"
 width="905.000000pt" height="631.000000pt" viewBox="0 0 905.000000 631.000000"
 preserveAspectRatio="xMidYMid meet">

<g transform="translate(0.000000,631.000000) scale(0.100000,-0.100000)"
fill="#000000" stroke="none">
<path d="M0 3155 l0 -3155 4525 0 4525 0 0 3155 0 3155 -4525 0 -4525 0 0
-3155z m5221 2254 c369 -48 627 -228 844 -589 32 -52 62 -98 69 -102 6 -4 43
-8 81 -8 94 0 195 -27 345 -92 208 -90 343 -193 475 -363 134 -173 229 -405
266 -650 12 -84 15 -309 4 -410 -20 -191 -141 -488 -263 -651 -126 -167 -289
-297 -447 -356 -106 -39 -381 -71 -423 -49 -26 14 -61 -5 -67 -36 -33 -147
-221 -405 -378 -516 -146 -102 -301 -166 -422 -174 -38 -2 -96 -11 -128 -20
-47 -13 -64 -14 -91 -5 -18 7 -64 12 -102 13 -109 0 -201 22 -307 72 -102 48
-236 126 -274 160 -23 20 -23 20 -60 -6 -90 -61 -298 -167 -385 -196 -181 -60
-244 -72 -378 -72 -117 0 -132 2 -237 36 -130 43 -202 83 -312 177 -85 72
-159 164 -206 254 -16 31 -40 64 -52 74 -21 16 -28 17 -95 4 -155 -30 -331 -9
-508 59 -139 53 -246 124 -352 233 -235 242 -388 537 -522 1011 -83 293 -101
374 -86 383 17 11 49 1 60 -20 11 -20 140 -121 227 -178 70 -45 216 -104 311
-126 46 -11 79 -12 125 -6 131 19 206 70 312 215 42 58 111 136 152 175 82 74
201 143 268 154 179 29 228 41 240 61 7 11 15 61 19 110 16 258 100 461 248
601 182 172 363 266 568 295 70 10 198 7 280 -7 35 -6 37 -4 65 48 133 246
455 447 794 497 83 13 247 12 342 0z"/>
<path d="M4895 5254 c-11 -3 -51 -12 -90 -21 -177 -40 -377 -153 -488 -274
-84 -91 -109 -140 -144 -274 -24 -93 -28 -128 -27 -231 2 -178 35 -273 142
-400 92 -111 297 -193 450 -182 153 11 303 143 354 311 26 88 21 126 -32 229
l-42 80 19 27 c43 57 89 41 147 -52 61 -97 76 -181 52 -286 -47 -206 -196
-369 -396 -433 -185 -59 -487 32 -637 193 -109 117 -168 237 -193 393 -12 71
-11 120 6 303 l7 72 -28 7 c-15 4 -82 4 -149 1 -132 -6 -204 -25 -326 -87
-114 -58 -243 -172 -319 -283 -38 -55 -85 -166 -106 -246 -17 -67 -23 -267
-12 -371 l8 -75 -143 3 c-160 4 -234 -7 -317 -47 -72 -34 -178 -134 -268 -254
-71 -93 -149 -164 -227 -204 -53 -28 -160 -53 -221 -53 -105 0 -286 45 -408
101 -15 7 -30 10 -33 7 -16 -17 97 -342 176 -503 132 -270 355 -492 568 -566
133 -47 329 -63 455 -38 l55 11 11 63 c6 34 11 83 11 109 0 87 50 252 104 341
82 137 199 222 342 250 63 12 202 6 263 -11 152 -44 289 -147 351 -263 7 -14
15 -64 18 -113 l5 -88 -47 0 c-69 0 -82 10 -84 66 -3 63 -25 107 -81 155 -125
110 -308 149 -460 98 -117 -40 -211 -162 -256 -331 -14 -53 -17 -94 -13 -205
l4 -138 50 -106 c61 -126 120 -191 243 -267 99 -60 244 -109 353 -118 222 -19
530 119 750 334 43 42 71 63 77 57 6 -6 34 -40 64 -78 76 -95 232 -197 363
-236 83 -26 261 -40 367 -30 145 14 327 88 455 186 86 66 131 115 205 226 63
93 91 167 83 213 -5 25 -13 33 -45 43 -91 27 -236 150 -290 246 -79 140 -109
316 -77 445 45 175 187 374 306 428 47 22 70 25 165 26 162 1 199 -19 188
-103 l-6 -43 -106 7 c-146 9 -196 -9 -279 -103 -68 -76 -104 -142 -126 -229
-41 -156 3 -331 106 -430 47 -45 215 -133 288 -151 138 -33 325 -22 464 29
190 69 324 185 437 379 97 164 132 266 174 495 6 33 6 259 0 315 -10 89 -25
165 -34 168 -5 2 -8 9 -5 17 3 7 -1 29 -9 47 -8 18 -20 54 -27 81 -7 26 -26
68 -41 93 -16 24 -29 49 -29 54 0 6 -4 10 -10 10 -5 0 -10 6 -10 13 0 25 -106
163 -175 228 -95 89 -171 139 -301 194 -129 55 -229 77 -339 74 -140 -4 -129
-9 -159 77 -46 127 -122 240 -246 364 -108 108 -202 164 -375 222 -84 29 -102
31 -260 34 -93 1 -179 1 -190 -2z"/>
</g>
</svg>
